<svg width="24" height="18" viewBox="0 0 24 18" fill="none" xmlns="http://www.w3.org/2000/svg">
<path d="M1.63641 18.0043H5.45456V8.73155L0 4.64062V16.368C0 17.272 0.732281 18.0044 1.63641 18.0044V18.0043Z" fill="#4285F4"/>
<path d="M18.5454 18.0043H22.3636C23.2677 18.0043 24 17.272 24 16.3679V4.64062L18.5454 8.73155V18.0043Z" fill="#34A853"/>
<path d="M18.5454 1.64076V8.73168L24 4.64076V2.45896C24 0.43668 21.6914 -0.71832 20.0727 0.495321L18.5454 1.64076Z" fill="#FBBC04"/>
<path fill-rule="evenodd" clip-rule="evenodd" d="M5.45459 8.73155V1.64062L12 6.54975L18.5455 1.64062V8.73155L12 13.6406L5.45459 8.73155Z" fill="#EA4335"/>
<path d="M0 2.45896V4.64076L5.45456 8.73168V1.64076L3.92728 0.495323C2.30859 -0.718318 0 0.436682 0 2.45887V2.45896Z" fill="#C5221F"/>
</svg>
